<svg xmlns="http://www.w3.org/2000/svg" viewBox="0 0 64 64"><defs><style>.cls-1{fill:#3672b8;}.cls-2{fill:#fff;}</style></defs><g id="Layer_2" data-name="Layer 2"><g id="Layer_1-2" data-name="Layer 1"><rect class="cls-1" width="64" height="64"/><path class="cls-2" d="M24.14,14.24l.07.2.42.05,0,.19.15,0,.25.25,0,0,0,.21.19,0,0,0a1.57,1.57,0,0,1,.21.24.65.65,0,0,1,.08.27c0,.21,0,.41,0,.61V29.41c0,.26,0,.53,0,.8,0,.12,0,.25-.17.22l-.4.66-.31.08-.06.17-.21,0c0,.18-.16.2-.32.2H9.7l-.09-.2c-.18,0-.38,0-.46-.22,0,0-.11,0-.19-.06l0-.19-.2,0-.06-.39-.18-.06,0-.41-.06,0a2.15,2.15,0,0,1-.13-.32,4,4,0,0,1,0-.49V16.59c0-.12,0-.23,0-.35s0-.11,0-.12c.28-.12.15-.37.19-.57a.53.53,0,0,0,0-.13l.18-.06c0-.17,0-.36.25-.43,0,0,0-.11.07-.19l.39-.06,0-.21.41,0c0-.17.15-.2.3-.2h14ZM12.67,18.66v8.53h8.5c.18,0,.22-.08.22-.26V19c0-.37,0-.37-.37-.37H12.67Z"/><path class="cls-2" d="M54.48,20.93l.4,0,0,.17,0,0,.34.29.48.53,0,0,0,.42c0,.1,0,.22.13.24l0,0a1.35,1.35,0,0,1-.11.9.39.39,0,0,0-.06.2,1,1,0,0,0,0,.25c-.25,0-.22.25-.27.44l-.18.06,0,.18c-.15.1-.44-.05-.44.19a1.72,1.72,0,0,1-.3.23.82.82,0,0,1-.28.07,5.43,5.43,0,0,1-.57,0H32.25a5.43,5.43,0,0,1-.57,0c-.13,0-.26,0-.36-.15s-.25-.08-.4-.11l-.05-.17-.21,0,0-.2-.19,0,0-.2c-.21,0-.2-.18-.23-.33s-.07-.13-.1-.2a.41.41,0,0,1-.09-.19c0-.35,0-.69,0-1,0,0,0-.1,0-.1.22-.07.18-.25.19-.41l0-.08c.21-.22.21-.22.23-.35l.28-.26,0,0,.38-.08.06-.18.4,0,.11-.22h22.2a2,2,0,0,1,.42,0,.94.94,0,0,1,.24.13Z"/><path class="cls-2" d="M31.11,46.59l0-.21-.39,0-.06-.2-.16,0c-.09-.16,0-.4-.28-.42a2.66,2.66,0,0,0,0-.3s0-.12-.05-.13c-.19,0-.15-.18-.16-.29,0-.26,0-.51,0-.76s0-.32.17-.39c0,0,0-.1,0-.15s0-.27.18-.3c0,0,.06-.13.1-.22l.17,0,0-.18c.1,0,.3,0,.23-.23l.42,0,0-.06a.93.93,0,0,1,.29-.13,5.16,5.16,0,0,1,.68,0H53.72c.22,0,.44,0,.65,0s.24,0,.29.15.14.06.24.1c0,.24.26.17.4.26l.23.24,0,0,.08.38.18.06,0,.39.06,0a2.32,2.32,0,0,1,.13.37,1.62,1.62,0,0,1,0,.44c0,.07-.08.13-.12.2a.56.56,0,0,0-.07.16l0,.49-.19.07,0,.19-.18,0,0,0-.33.39-.18,0,0,.2-.21,0c-.1,0-.21,0-.28.13s-.16.07-.25.08H31.82c-.11,0-.23,0-.27-.14s-.08,0-.12-.05A3.16,3.16,0,0,0,31.11,46.59Z"/><path class="cls-2" d="M25.6,40.84l0,.39,0,0-.24.26,0,0-.16,0,0,0-.93.93h0l-.45.47h0l-.45.47-.05,0,0,.16-.39.33-.05,0,0,.19-.18,0c0,.15-.06.27-.25.24l0,.19-.19,0c0,.15,0,.27-.24.23l0,.2-.18,0c0,.15,0,.28-.24.22l-.05.21-.18,0,0,.21-.21.05,0,.18-.18,0,0,.2-.21.05,0,.18-.18,0,0,0-.45.45-.05,0,0,.2-.18.05-.06.19-.19,0,0,.19-.19,0,0,.19-.2,0,0,.19-.2,0-.05.19-.13,0a2.92,2.92,0,0,1-.19.23.64.64,0,0,0-.14.21l-.19,0,0,.19-.19.06-.06.18-.18,0,0,.12-.28.26,0,0-.2,0,0,.14-.39.34-.05,0,0,.19-.18,0,0,.2-.2,0,0,.17c-.15.1-.43-.08-.46.26l-.41,0a.49.49,0,0,0-.29.12.43.43,0,0,1-.44,0,.46.46,0,0,0-.3-.12l-.38,0-.07-.2-.39-.05,0-.18-.18,0,0-.21-.2,0,0-.19-.19,0,0-.19-.19,0,0-.19-.18,0,0-.2L12,49.33l0-.18-.05,0a1.66,1.66,0,0,0-.16-.21.51.51,0,0,0-.14-.09l-.26-.27h0l-.23-.25-.22-.2-.28-.34s0,0,0,0c-.2-.08-.22-.26-.3-.43s-.21-.15-.28-.27-.13-.13-.19-.2l-.4-.33,0-.18-.14,0L9,46.1l0,0,0-.21-.15,0-.22-.31,0,0,0-.61c-.31-.1-.2-.36-.21-.56s0-.36.21-.45l0-.41c.28,0,.18-.28.24-.46l.19,0,0-.19.19,0,.07-.2.38-.05.07-.19c.52,0,1.05,0,1.57,0,.1,0,.19.09.28.14l0,.05.22,0,0,.18,0,0,.46.46h0l.24.24h0l.23.22a.22.22,0,0,1,.19.28l.2,0,0,.17,0,0,.25.24,0,0,.19,0,0,.18.19,0,.05.22L14,45l.05.19.18,0,0,.21.2,0,0,.17a.36.36,0,0,0,.45,0,1.49,1.49,0,0,1,.23-.27l.31-.3.4-.39s.05-.07.09-.08.27,0,.33-.24.23-.18.35-.27a1,1,0,0,0,.08-.11l.13-.13.12-.09.11-.12.1-.11a5,5,0,0,1,.4-.4l.47-.48h0l.46-.46h0l.35-.4.15,0,0-.15.39-.34.05,0,0-.13.27-.27,0,0,.18,0,0,0,.47-.47.05,0,0-.18.19,0c0-.16.06-.27.25-.24l0-.18.18,0,0-.21.21,0,0-.18.18,0,0-.2.22-.05,0-.17.19,0,0-.2.21,0,0-.18.41,0,.06-.21h1.56l.07.21.4,0,0,.18.2,0,0,.21.19,0c0,.14,0,.29.19.26.16.22-.09.56.28.69,0,.29,0,.59,0,.88a.78.78,0,0,1-.13.3Z"/></g></g></svg>